<?xml version="1.0" standalone="no"?><!DOCTYPE svg PUBLIC "-//W3C//DTD SVG 1.1//EN" "http://www.w3.org/Graphics/SVG/1.1/DTD/svg11.dtd"><svg t="1751640075807" class="icon" viewBox="0 0 1024 1024" version="1.1" xmlns="http://www.w3.org/2000/svg" p-id="2038" xmlns:xlink="http://www.w3.org/1999/xlink" width="200" height="200"><path d="M921.6 851.968c-5.12-4.096-123.904-99.328-239.616-36.864-145.408 78.848-285.696 110.592-359.424 81.92-50.176-19.456-88.064-45.056-114.688-66.56l499.712-133.12c14.336-4.096 24.576-14.336 28.672-28.672L815.104 389.12c4.096-14.336 0-29.696-10.24-39.936L588.8 133.12c-10.24-10.24-25.6-14.336-39.936-10.24l-279.552 77.824c-14.336 4.096-24.576 15.36-28.672 28.672L89.088 799.744v1.024c0 2.048-1.024 3.072-1.024 5.12V815.104c0 2.048 1.024 4.096 1.024 6.144v1.024c1.024 2.048 1.024 3.072 2.048 5.12 1.024 0 1.024 1.024 1.024 1.024 1.024 2.048 2.048 3.072 3.072 5.12v1.024c5.12 7.168 68.608 88.064 196.608 138.24 26.624 10.24 59.392 16.384 95.232 16.384 92.16 0 209.92-34.816 332.8-101.376 67.584-36.864 148.48 27.648 148.48 27.648 17.408 14.336 43.008 11.264 57.344-6.144 15.36-17.408 13.312-43.008-4.096-57.344zM314.368 273.408l234.496-65.536 182.272 182.272L664.576 624.64l-399.36 106.496 168.96-168.96c29.696 8.192 62.464 1.024 84.992-21.504 33.792-33.792 33.792-88.064 0-121.856a85.9136 85.9136 0 0 0-121.856 0c-23.552 23.552-30.72 56.32-21.504 84.992L207.872 672.768l106.496-399.36zM833.536 309.248c8.192 8.192 18.432 12.288 28.672 12.288s20.48-4.096 28.672-12.288c16.384-16.384 16.384-41.984 0-58.368l-204.8-204.8c-15.36-15.36-40.96-15.36-57.344 1.024-16.384 16.384-16.384 41.984 0 58.368l204.8 203.776z" fill="#333C4F" p-id="2039"></path></svg>